<?xml version="1.0" encoding="UTF-8" standalone="no"?>
<svg width="679px" height="224px" viewBox="0 0 679 224" version="1.1" xmlns="http://www.w3.org/2000/svg" xmlns:xlink="http://www.w3.org/1999/xlink" xmlns:sketch="http://www.bohemiancoding.com/sketch/ns">
    <title>La Manon</title>
    <desc>Boulangerie. deuis 2014</desc>
    <defs>
        <path id="path-1" d="M0,224 L678.912,224 L678.912,0.008 L0,0.008 L0,224 Z"></path>
    </defs>
    <g id="Page-1" stroke="none" stroke-width="1" fill="none" fill-rule="evenodd" sketch:type="MSPage">
        <g id="lamanon_logo" sketch:type="MSLayerGroup">
            <path d="M214.145,162.304 L214.572,162.304 L214.572,162.848 L214.145,162.848 L214.145,162.304 Z M213.664,166.539 L213.397,166.228 L213.129,166.539 L213.397,166.927 L213.664,166.539 L213.664,166.539 Z M209.87,166.228 L209.87,165.879 C209.87,165.672 209.763,165.568 209.549,165.568 C209.229,165.568 209.068,165.75 209.068,166.112 L209.122,166.228 L209.87,166.228 L209.87,166.228 Z M208.587,162.848 L208.587,162.499 L208.32,162.499 L208.587,162.848 L208.587,162.848 Z M208.053,151.97 L208.427,151.97 L208.427,151.426 L208.053,151.426 L208.053,151.97 Z M207.198,162.499 L207.625,162.499 L207.625,161.994 L207.198,161.994 L207.198,162.499 Z M207.519,146.181 L207.519,145.793 L207.198,145.793 L207.519,146.181 L207.519,146.181 Z M207.198,140.354 L207.625,140.354 L207.625,139.888 L207.198,139.888 L207.198,140.354 Z M206.45,141.753 L206.45,141.364 L206.183,141.364 L206.45,141.753 L206.45,141.753 Z M205.862,155.7 L206.29,155.7 L206.29,155.156 L205.862,155.156 L205.862,155.7 Z M205.862,146.842 L206.29,146.842 L206.29,146.299 L205.862,146.299 L205.862,146.842 Z M205.862,169.337 L205.862,168.987 L205.648,168.987 L205.862,169.337 L205.862,169.337 Z M205.648,163.508 C205.577,163.508 205.416,163.399 205.167,163.178 C204.917,162.959 204.757,162.848 204.687,162.848 C204.58,162.848 204.454,162.965 204.313,163.198 L204.793,163.858 L205.061,163.858 C205.345,163.858 205.542,163.742 205.648,163.508 L205.648,163.508 Z M204.793,158.07 L204.58,157.72 L204.313,158.381 L204.366,158.459 C204.437,158.459 204.58,158.329 204.793,158.07 L204.793,158.07 Z M204.793,145.793 C204.757,145.664 204.65,145.599 204.473,145.599 C204.187,145.599 203.866,145.793 203.511,146.181 C203.688,146.441 203.849,146.57 203.992,146.57 C204.169,146.57 204.437,146.311 204.793,145.793 L204.793,145.793 Z M203.244,150.572 C203.244,150.547 203.225,150.533 203.19,150.533 L202.442,150.533 C202.156,150.533 201.961,150.663 201.854,150.922 L202.175,151.31 L202.389,151.31 C202.637,151.31 202.923,151.064 203.244,150.572 L203.244,150.572 Z M222.161,169.687 C222.161,171.474 221.287,172.366 219.542,172.366 C219.186,172.366 218.651,172.269 217.939,172.075 C217.226,171.88 216.691,171.784 216.336,171.784 C215.943,171.784 211.936,171.978 204.313,172.366 L203.885,172.056 L203.03,172.445 C202.602,172.185 201.925,171.511 200.999,170.425 C201.462,158.796 201.694,153.135 201.694,153.447 C201.694,150.313 201.604,145.605 201.427,139.325 C201.248,133.045 201.16,128.337 201.16,125.203 C201.16,124.555 201.373,123.966 201.801,123.435 C202.228,122.904 202.691,122.638 203.19,122.638 C203.546,122.638 204.063,122.619 204.74,122.581 C205.416,122.542 205.916,122.522 206.236,122.522 C207.625,122.522 208.641,122.807 209.282,123.377 C210.101,124.129 210.511,125.488 210.511,127.456 C210.511,128.31 210.439,129.761 210.297,131.807 C210.155,133.672 210.101,135.162 210.137,136.275 L209.763,136.974 C209.977,147.982 210.083,153.071 210.083,152.242 C210.083,154.651 210.012,155.933 209.87,156.089 L210.19,157.642 L209.87,158.381 L210.19,159.585 L209.923,160.867 C210.92,162.265 211.882,162.926 212.809,162.848 L219.489,162.149 C219.951,162.124 220.477,162.331 221.065,162.77 C221.653,163.212 222.018,163.69 222.161,164.208 C221.947,165.167 221.875,166.099 221.947,167.005 C222.089,168.611 222.161,169.505 222.161,169.687 Z M258.658,170.347 C258.658,171.72 257.697,172.405 255.773,172.405 C254.918,172.405 254.294,172.198 253.902,171.784 C253.688,171.81 253.332,171.939 252.833,172.173 C252.334,172.405 251.96,172.523 251.711,172.523 C250.999,172.523 250.393,171.589 249.895,169.724 C249.609,168.378 249.324,167.03 249.04,165.684 C248.185,165.4 247.454,165.257 246.849,165.257 C245.139,165.257 244.017,165.879 243.482,167.122 C243.232,168.288 242.965,169.452 242.681,170.618 C242.324,171.861 241.486,172.484 240.169,172.484 C239.955,172.484 239.652,172.495 239.26,172.523 L238.298,172.523 C236.161,172.523 234.789,171.823 234.184,170.425 C234.718,169.103 235.982,160.881 237.978,145.755 C239.866,131.354 241.238,123.792 242.093,123.066 C242.627,122.833 243.41,122.677 244.444,122.599 C245.156,122.549 246.101,122.536 247.276,122.561 C249.021,122.613 249.876,122.638 249.841,122.638 C250.34,122.638 250.874,122.898 251.444,123.416 C252.228,125.643 252.62,127.871 252.62,130.097 L252.459,131.497 C253.136,132.378 253.938,136.482 254.864,143.812 C255.292,147.723 255.737,151.634 256.2,155.545 C256.735,156.374 257.002,157.306 257.002,158.341 C257.002,158.601 256.913,158.796 256.735,158.925 L257.162,159.585 C257.233,160.621 257.518,162.408 258.017,164.946 C258.445,167.251 258.658,169.052 258.658,170.347 Z M330.799,141.209 L330.692,167.005 C330.692,169.57 330.39,171.15 329.784,171.745 C329.32,172.185 328.02,172.405 325.883,172.405 C324.314,172.405 323.335,171.939 322.943,171.007 C323.122,169.945 323.211,168.753 323.211,167.433 C323.211,166.604 323.157,165.354 323.05,163.683 C322.943,162.013 322.89,160.763 322.89,159.934 C322.89,158.329 322.997,157.047 323.211,156.089 C323.317,156.063 323.496,156.166 323.745,156.399 L324.279,155.7 L323.905,154.923 L322.89,154.69 L324.012,153.33 C323.585,153.356 323.228,152.91 322.943,151.99 C322.658,151.071 322.356,150.611 322.035,150.611 L321.875,150.611 C321.447,151.336 320.734,152.372 319.737,153.718 L320.111,154.029 C320.289,154.029 320.432,153.926 320.539,153.718 C320.396,154.392 320.271,155.052 320.165,155.7 C319.986,156.477 319.755,157.059 319.47,157.448 C319.577,157.785 319.63,158.134 319.63,158.497 C319.63,158.885 319.55,159.475 319.39,160.264 C319.229,161.055 319.149,161.632 319.149,161.994 C319.149,164.118 318.9,165.555 318.401,166.306 C318.508,166.669 318.562,167.083 318.562,167.55 C318.562,168.714 318.276,169.802 317.707,170.812 C317.101,171.927 316.371,172.484 315.516,172.484 C315.337,172.484 315.097,172.296 314.794,171.919 C314.491,171.544 314.268,171.357 314.126,171.357 L313.966,171.474 C313.36,168.728 312.612,163.6 311.722,156.089 C311.757,156.089 312.024,155.855 312.523,155.389 L311.829,154.69 C311.722,154.69 311.579,154.833 311.401,155.117 C311.436,153.149 310.741,151.44 309.317,149.989 L308.034,149.911 L307.179,150.766 C307.286,150.87 307.464,151.168 307.714,151.66 L309.05,151.621 C308.907,152.553 308.817,153.485 308.782,154.418 C308.676,154.47 308.497,154.341 308.248,154.029 C308.248,154.082 308.159,154.204 307.981,154.398 C307.802,154.592 307.714,154.755 307.714,154.884 L307.714,155.117 L308.248,155.7 L308.408,155.466 C308.443,156.477 308.515,158.07 308.622,160.246 C308.729,162.318 308.782,163.884 308.782,164.946 L308.782,165.957 C308.747,165.93 308.479,166.15 307.981,166.617 C308.55,166.823 308.836,167.407 308.836,168.364 C308.836,168.468 308.8,168.923 308.729,169.724 C308.693,170.269 308.71,170.71 308.782,171.046 L307.981,172.134 C307.66,172.056 307.321,172.017 306.966,172.017 C306.573,172.017 305.995,172.081 305.229,172.212 C304.462,172.341 303.884,172.405 303.492,172.405 C302.958,172.405 302.37,172.263 301.729,171.978 L301.141,170.618 C301.283,169.323 301.248,168.456 301.034,168.015 C301.212,167.964 301.301,167.835 301.301,167.626 C301.301,167.316 301.158,166.993 300.874,166.656 C301.051,163.185 301.229,159.702 301.408,156.205 C301.657,151.621 301.782,147.93 301.782,145.133 C301.782,143.864 301.764,142.699 301.729,141.636 L301.034,124.775 C301.604,123.869 301.978,123.325 302.156,123.143 C302.512,122.807 303.046,122.638 303.759,122.638 C304.472,122.638 305.576,122.711 307.072,122.852 C308.569,122.995 309.691,123.066 310.439,123.066 C311.044,124.05 311.508,125.229 311.829,126.601 C311.829,126.653 312.06,127.961 312.523,130.525 C312.487,130.551 312.22,130.318 311.722,129.826 L311.508,130.215 C312.398,130.836 312.986,132.157 313.271,134.177 C313.592,136.844 313.876,138.476 314.126,139.072 L314.073,140.704 L314.661,141.753 L314.821,141.753 L314.447,141.792 L313.859,141.442 L313.592,141.908 C313.983,142.633 314.322,143.087 314.607,143.268 C315.07,143.449 315.533,143.631 315.997,143.812 L316.798,142.801 L316.264,142.18 C316.371,141.843 316.638,141.513 317.065,141.189 C317.493,140.866 317.76,140.588 317.867,140.354 L317.279,139.188 C317.314,138.93 317.457,138.464 317.707,137.79 C317.884,137.22 317.974,136.755 317.974,136.391 C317.974,135.9 317.956,135.653 317.92,135.653 C318.241,135.576 318.543,135.511 318.829,135.459 L319.203,134.759 L318.882,134.294 L318.401,134.294 C318.543,133.75 318.633,133.18 318.668,132.584 L318.882,132.623 L319.791,131.924 C319.398,131.199 319.203,130.422 319.203,129.592 C319.203,128.66 319.648,126.705 320.539,123.726 C321.536,123.027 322.48,122.677 323.371,122.677 L326.898,122.677 C328.536,122.677 329.57,123.014 329.998,123.687 C330.246,124.309 330.496,124.918 330.746,125.513 C330.354,132.351 330.158,135.653 330.158,135.421 C330.158,136.871 330.246,138.192 330.425,139.383 L329.944,140.121 L330.104,140.704 L330.799,141.209 Z M368.525,170.347 C368.525,171.72 367.563,172.405 365.64,172.405 C364.785,172.405 364.161,172.198 363.77,171.784 C363.556,171.81 363.199,171.939 362.701,172.173 C362.201,172.405 361.827,172.523 361.579,172.523 C360.865,172.523 360.261,171.589 359.762,169.724 C359.477,168.378 359.191,167.03 358.907,165.684 C358.052,165.4 357.321,165.257 356.716,165.257 C355.006,165.257 353.884,165.879 353.35,167.122 C353.1,168.288 352.832,169.452 352.548,170.618 C352.191,171.861 351.354,172.484 350.036,172.484 C349.822,172.484 349.52,172.495 349.128,172.523 L348.166,172.523 C346.028,172.523 344.656,171.823 344.051,170.425 C344.585,169.103 345.85,160.881 347.845,145.755 C349.733,131.354 351.104,123.792 351.96,123.066 C352.494,122.833 353.277,122.677 354.312,122.599 C355.023,122.549 355.968,122.536 357.144,122.561 C358.889,122.613 359.743,122.638 359.708,122.638 C360.207,122.638 360.741,122.898 361.312,123.416 C362.095,125.643 362.487,127.871 362.487,130.097 L362.327,131.497 C363.003,132.378 363.805,136.482 364.731,143.812 C365.159,147.723 365.604,151.634 366.067,155.545 C366.602,156.374 366.869,157.306 366.869,158.341 C366.869,158.601 366.779,158.796 366.602,158.925 L367.029,159.585 C367.101,160.621 367.385,162.408 367.885,164.946 C368.312,167.251 368.525,169.052 368.525,170.347 Z M404.917,169.025 L404.863,169.064 C404.756,170.54 404.489,171.538 404.062,172.056 L403.313,172.405 C402.886,172.198 402.369,172.095 401.764,172.095 C401.407,172.095 400.873,172.148 400.16,172.249 C399.447,172.355 398.932,172.405 398.611,172.405 C397.934,172.405 397.257,172.185 396.58,171.745 C395.796,170.218 394.978,167.212 394.122,162.732 C393.16,157.448 392.483,154.198 392.092,152.98 C393.623,153.085 394.585,152.631 394.978,151.621 C394.834,151.414 394.62,151.31 394.336,151.31 L393.374,151.31 L392.946,151.854 C392.697,151.698 392.34,151.53 391.878,151.348 L391.29,151.97 L390.97,151.621 C390.577,151.854 390.238,152.463 389.954,153.447 C389.634,154.638 389.366,155.389 389.152,155.7 L389.687,156.827 C389.473,158.51 389.562,159.533 389.954,159.896 L390.008,164.635 C390.008,167.874 389.9,170.23 389.687,171.706 C388.974,172.277 388.065,172.562 386.962,172.562 C385.18,172.562 384.058,172.484 383.595,172.327 C382.49,171.991 381.938,171.161 381.938,169.841 C381.938,169.323 382.026,168.714 382.205,168.015 L381.778,167.55 C381.813,166.565 381.956,163.664 382.205,158.846 C382.383,155.272 382.473,152.411 382.473,150.26 C382.473,148.241 382.437,145.457 382.366,141.908 C382.259,137.868 382.205,135.071 382.205,133.516 L382.419,133.05 L381.938,124.698 C381.902,123.869 382.4,123.325 383.435,123.066 C384.111,122.885 385.206,122.8 386.721,122.813 C388.234,122.827 389.152,122.781 389.473,122.677 C390.506,123.558 391.504,125.734 392.466,129.204 C392.715,130.189 393.302,132.778 394.229,136.974 L393.374,136.197 C393.268,136.172 393.018,136.43 392.626,136.974 C393.231,137.932 394.211,139.202 395.565,140.782 L396.688,141.053 L397.436,141.053 C397.862,140.665 398.13,140.213 398.237,139.694 L397.702,139.305 C397.453,139.305 397.275,139.461 397.168,139.771 C397.346,137.959 397.382,135.745 397.275,133.128 C397.132,129.373 397.062,127.172 397.062,126.523 C397.062,125.125 397.114,124.27 397.222,123.96 C397.399,123.364 397.916,122.924 398.771,122.638 C399.127,122.768 399.626,122.833 400.268,122.833 C400.445,122.833 400.73,122.82 401.122,122.794 L401.978,122.794 C403.794,122.794 404.773,123.649 404.917,125.358 C404.703,125.513 404.623,125.754 404.676,126.077 C404.729,126.401 404.667,126.628 404.489,126.757 L404.382,155.545 C404.382,157.409 404.56,161.903 404.917,169.025 Z M441.041,146.259 L441.041,156.283 L440.561,156.943 C440.774,157.979 440.881,159.015 440.881,160.051 C440.881,163.522 439.848,166.449 437.781,168.831 C435.715,171.214 433.239,172.405 430.354,172.405 C426.541,172.405 423.691,171.032 421.804,168.288 C420.271,166.087 419.292,162.797 418.864,158.42 C418.65,156.322 418.544,152.295 418.544,146.337 C418.544,138.852 419.078,133.504 420.147,130.292 C421.821,125.138 425.135,122.561 430.087,122.561 C433.935,122.561 436.802,124.05 438.69,127.029 C438.547,127.417 438.69,127.948 439.117,128.622 C440.4,130.719 441.041,136.599 441.041,146.259 Z M477.913,169.025 L477.859,169.064 C477.752,170.54 477.485,171.538 477.058,172.056 L476.31,172.405 C475.882,172.198 475.365,172.095 474.76,172.095 C474.403,172.095 473.869,172.148 473.156,172.249 C472.443,172.355 471.928,172.405 471.607,172.405 C470.93,172.405 470.253,172.185 469.576,171.745 C468.792,170.218 467.974,167.212 467.118,162.732 C466.156,157.448 465.479,154.198 465.088,152.98 C466.619,153.085 467.581,152.631 467.974,151.621 C467.83,151.414 467.616,151.31 467.332,151.31 L466.37,151.31 L465.942,151.854 C465.693,151.698 465.336,151.53 464.874,151.348 L464.286,151.97 L463.966,151.621 C463.573,151.854 463.234,152.463 462.95,153.447 C462.63,154.638 462.362,155.389 462.148,155.7 L462.683,156.827 C462.469,158.51 462.558,159.533 462.95,159.896 L463.004,164.635 C463.004,167.874 462.896,170.23 462.683,171.706 C461.97,172.277 461.062,172.562 459.958,172.562 C458.176,172.562 457.054,172.484 456.591,172.327 C455.486,171.991 454.935,171.161 454.935,169.841 C454.935,169.323 455.022,168.714 455.201,168.015 L454.774,167.55 C454.81,166.565 454.952,163.664 455.201,158.846 C455.379,155.272 455.469,152.411 455.469,150.26 C455.469,148.241 455.433,145.457 455.362,141.908 C455.255,137.868 455.201,135.071 455.201,133.516 L455.415,133.05 L454.935,124.698 C454.898,123.869 455.396,123.325 456.431,123.066 C457.107,122.885 458.202,122.8 459.717,122.813 C461.23,122.827 462.148,122.781 462.469,122.677 C463.502,123.558 464.5,125.734 465.462,129.204 C465.711,130.189 466.298,132.778 467.225,136.974 L466.37,136.197 C466.264,136.172 466.014,136.43 465.622,136.974 C466.228,137.932 467.207,139.202 468.562,140.782 L469.684,141.053 L470.432,141.053 C470.858,140.665 471.126,140.213 471.233,139.694 L470.698,139.305 C470.449,139.305 470.271,139.461 470.164,139.771 C470.342,137.959 470.378,135.745 470.271,133.128 C470.128,129.373 470.058,127.172 470.058,126.523 C470.058,125.125 470.11,124.27 470.218,123.96 C470.396,123.364 470.912,122.924 471.768,122.638 C472.123,122.768 472.622,122.833 473.264,122.833 C473.441,122.833 473.727,122.82 474.118,122.794 L474.974,122.794 C476.79,122.794 477.77,123.649 477.913,125.358 C477.699,125.513 477.619,125.754 477.672,126.077 C477.726,126.401 477.663,126.628 477.485,126.757 L477.378,155.545 C477.378,157.409 477.556,161.903 477.913,169.025 Z" id="Fill-1" fill="#FEFEFE" sketch:type="MSShapeGroup"></path>
            <g id="Group-10">
                <mask id="mask-2" sketch:name="Clip 8" fill="white">
                    <use xlink:href="#path-1"></use>
                </mask>
                <g id="Clip-8"></g>
                <path d="M524.568,171.708 C530.301,171.026 546.051,173.215 545.055,170.344 C541.791,169.512 535.146,172.057 534.129,168.978 C540.658,168.361 539.893,168.361 546.422,168.978 C543.744,164.039 523.811,164.234 524.568,171.708 L524.568,171.708 Z M670.717,152.587 C671.006,148.198 665.846,149.262 663.889,147.123 L663.889,152.587 L670.717,152.587 L670.717,152.587 Z M652.959,148.488 C632.172,145.263 605.928,145.221 586.031,149.855 C606.322,147.58 635.203,149.029 652.959,148.488 L652.959,148.488 Z M648.861,151.221 C638.244,151.822 631.26,148.79 620.18,149.855 C621.971,151.039 647.438,154.152 648.861,151.221 L648.861,151.221 Z M591.496,145.757 C584.643,146.645 574.225,143.967 569.641,147.123 C576.494,146.236 586.912,148.913 591.496,145.757 L591.496,145.757 Z M568.275,143.026 C564.645,143.795 561.32,137.407 558.715,141.659 C561.205,142.029 566.371,146.577 568.275,143.026 L568.275,143.026 Z M590.131,144.392 C608.59,146.788 630.004,142.89 650.229,145.757 C652.938,148.979 652.938,145.632 650.229,144.392 C632.666,141.62 610.992,144.768 595.594,143.026 C611.057,140.578 634.486,142.453 647.496,141.659 C632.146,137.311 621.236,142.585 603.789,138.928 C606.369,138.649 617.283,139.849 613.35,137.562 C607.334,137.385 593.273,137.789 599.689,141.659 C595.828,141.894 590.32,140.485 590.131,144.392 L590.131,144.392 Z M547.787,121.171 C539.576,120.278 527.777,122.97 521.836,119.806 L547.787,119.806 C546.814,115.769 547.41,110.164 543.689,108.878 C539.535,111.286 547.418,113.109 543.689,114.342 C425.461,116.01 301.725,114.342 176.269,114.342 C160.985,114.342 139.66,116.962 138.023,110.244 C137.6,121.21 139.814,121.133 139.39,132.099 C142.197,135.664 153.101,131.136 155.779,134.83 L140.756,134.83 L140.756,148.488 C145.354,149.355 153.443,146.73 155.779,149.855 L140.756,149.855 C141.068,155.938 139.997,162.827 139.39,170.344 C138.925,176.091 134.069,188.707 142.121,186.734 C143.056,186.206 137.354,182.327 140.756,179.904 C280.074,179.496 393.434,181.193 516.82,180.037 C518.365,180.195 520.148,180.112 521.975,179.986 C524.658,179.96 527.338,179.933 530.031,179.904 C527.777,179.498 524.83,179.789 521.975,179.986 C520.258,180.003 518.535,180.021 516.82,180.037 C514.58,179.809 512.848,179.071 512.275,177.171 C521.416,179.158 545.559,172.751 543.689,181.271 C550.973,172.162 550.377,155.176 550.518,138.928 C542.182,139.689 537.586,138.086 532.762,140.294 C536.145,142.927 545.359,140.016 549.152,141.659 C545.455,143.929 532.361,143.929 528.666,141.659 C532.818,140.291 530.408,139.408 528.666,137.562 C535.971,136.672 546.848,139.356 551.885,136.196 C552.299,128.207 543.422,125.373 547.787,121.171 L547.787,121.171 Z M534.129,184.001 C538.064,184.165 543.07,183.255 545.055,185.367 C547.137,180.119 529.785,182.759 534.129,184.001 L534.129,184.001 Z M531.396,182.634 L513.639,182.634 C508.143,183.513 499.115,180.861 495.883,184.001 C507.275,183.101 522.279,185.81 531.396,182.634 L531.396,182.634 Z M483.59,182.634 L459.004,182.634 C451.246,183.528 439.908,180.839 434.418,184.001 C450.361,183.096 469.926,185.815 483.59,182.634 L483.59,182.634 Z M467.201,186.734 L441.248,186.734 C433.49,187.624 422.15,184.936 416.662,188.1 C433.059,187.193 453.08,189.914 467.201,186.734 L467.201,186.734 Z M415.299,186.734 C377.508,187.643 336.076,184.912 300.563,188.1 C338.354,187.189 379.783,189.919 415.299,186.734 L415.299,186.734 Z M282.807,186.734 C275.954,187.619 265.537,184.943 260.953,188.1 C267.807,187.212 278.223,189.888 282.807,186.734 L282.807,186.734 Z M431.688,182.634 L316.955,182.634 L259.587,182.634 L230.904,182.634 C222.238,183.529 209.981,180.834 203.585,184.001 C279.164,183.091 358.385,185.821 431.688,182.634 L431.688,182.634 Z M142.121,111.611 C206.925,114.19 276,112.497 342.906,112.977 L443.98,112.977 L494.518,112.977 L519.104,112.977 L531.396,112.977 L538.225,112.977 C540.549,113.282 541.605,111.437 538.225,111.611 C407.127,112.118 260.459,110.881 142.121,111.611 L142.121,111.611 Z M204.951,108.878 C223.622,107.972 245.923,110.695 262.319,107.513 L233.635,107.513 C224.515,108.409 211.8,105.71 204.951,108.878 L204.951,108.878 Z M300.563,107.513 C296.762,107.555 293.876,107.456 289.636,107.513 C267.291,107.811 290.121,110.807 300.563,107.513 L300.563,107.513 Z M337.441,108.878 C353.4,109.635 381.131,109.465 396.176,107.513 L381.15,107.513 C380.59,105.184 379.389,107.8 377.053,107.513 C363.854,108.731 343.342,105.89 330.613,107.513 C323.922,108.366 332.771,108.656 337.441,108.878 L337.441,108.878 Z M401.639,108.878 C406.396,113.637 424.172,106.745 433.055,107.513 C427.078,104.343 403.971,111.21 401.639,108.878 L401.639,108.878 Z M434.418,108.878 C445.357,107.978 459.902,110.687 468.566,107.513 C457.629,108.413 443.084,105.705 434.418,108.878 L434.418,108.878 Z M489.053,108.878 C493.754,113.578 517.451,109.006 530.783,107.513 L539.592,107.513 C538.557,106.857 535.252,107.012 530.783,107.513 L513.639,107.513 C508.703,107.513 491.111,110.937 489.053,108.878 L489.053,108.878 Z M118.9,141.659 C110.231,144.935 88.443,138.556 83.389,143.026 C92.871,139.959 98.316,148.074 102.511,145.757 C94.877,140.796 117.386,148.338 118.9,141.659 L118.9,141.659 Z M66.998,141.659 C70.781,142.078 86.936,141.444 76.559,140.294 C68.338,137.588 55.505,139.493 45.143,138.928 C43.378,143.471 65.128,136.212 65.632,143.026 C57.834,140.351 44.297,143.417 36.949,140.294 C38.556,140.08 40.826,140.529 41.046,138.928 C37.208,138.862 32.6,140.168 35.583,143.026 C29.908,143.267 28.071,140.661 24.656,144.392 C42.638,143.42 62.986,145.924 73.828,143.026 C71.843,142.279 66.768,144.621 66.998,141.659 L66.998,141.659 Z M66.998,146.661 C61.05,147.542 51.558,144.88 47.876,148.028 C53.824,147.147 63.316,149.809 66.998,146.661 L66.998,146.661 Z M26.021,140.294 C21.844,141.284 22.003,137.938 17.826,138.928 C18.639,141.758 16.138,147.901 19.193,148.488 C21.033,145.321 23.073,142.354 26.021,140.294 L26.021,140.294 Z M15.094,138.928 C9.181,138.478 6.049,140.81 4.167,144.392 C8.239,144.872 12.484,145.181 13.728,148.488 C11.901,148.339 6.199,145.93 9.631,148.488 C11.652,149.199 13.073,150.51 15.094,151.221 L15.094,138.928 L15.094,138.928 Z M28.587,137.728 C33.52,137.821 39.527,138.153 34.051,134.996 C35.658,135.21 37.929,134.762 38.149,136.362 C41.351,136.306 45.358,136.436 49.076,136.362 C69.621,135.951 47.168,135.536 38.149,133.63 C72.748,133.796 28.103,128.61 28.587,137.728 L28.587,137.728 Z M678.912,156.685 C677.498,161.92 669.742,163.071 665.252,164.878 C654.555,169.189 643.867,173.995 625.643,173.074 C598.57,171.708 570.039,154.189 551.885,170.344 C550.619,177.841 548.898,191.505 543.689,199.027 C417.426,194.557 275.362,200.407 135.292,196.294 C128.63,192.03 131.369,178.362 128.463,170.344 C131.304,167.379 132.877,170.51 135.292,171.708 C118.389,149.854 75.936,172.854 38.315,167.611 C29.191,166.341 -1.662,156.463 0.07,143.026 C1.09,135.111 26.928,128.045 36.949,126.635 C59.796,123.421 80.613,130.779 91.584,137.562 C95.111,131.476 121.578,137.877 128.463,130.733 C132.49,123.377 126.192,105.698 133.927,102.049 C137.51,102.799 137.456,100.667 140.756,100.684 C264.961,101.305 428.154,105.483 547.787,103.415 C550.359,110.859 551.369,119.867 553.252,128.001 C571.059,146.534 625.1,127.09 655.691,137.562 C664.686,140.641 677.111,147.22 678.912,156.685 L678.912,156.685 Z M170.806,177.171 C163.001,174.504 150.688,176.346 140.756,175.807 C145.049,181.095 164.28,178.659 170.806,177.171 L170.806,177.171 Z M520.469,175.807 C527.959,174.19 542.041,179.165 545.055,173.074 C537.564,174.689 523.482,169.713 520.469,175.807 L520.469,175.807 Z M140.756,171.708 C148.001,171.853 142.369,172.482 140.756,174.441 L162.609,174.441 C165.31,170.761 147.954,175.488 146.22,171.708 L159.878,171.708 C158.952,166.917 141.831,167.733 140.756,171.708 L140.756,171.708 Z M157.146,145.137 C152.548,146.002 144.459,143.377 142.121,146.504 C146.72,145.639 154.809,148.264 157.146,145.137 L157.146,145.137 Z M157.146,166.244 C152.548,167.11 144.459,164.485 142.121,167.611 C146.72,166.746 154.809,169.371 157.146,166.244 L157.146,166.244 Z M530.031,164.878 C535.527,164.001 544.557,166.654 547.787,163.514 C546.719,162.465 523.959,163.33 530.031,164.878 L530.031,164.878 Z M157.146,162.148 C152.548,163.013 144.459,160.388 142.121,163.514 C146.72,162.65 154.809,165.275 157.146,162.148 L157.146,162.148 Z M546.422,159.416 C540.924,160.292 531.896,157.641 528.666,160.781 C534.162,159.904 543.189,162.558 546.422,159.416 L546.422,159.416 Z M155.779,160.781 L155.779,158.051 L142.121,158.051 C141.928,163.706 151.627,159.474 155.779,160.781 L155.779,160.781 Z M542.324,156.685 C539.225,155.962 538.617,154.915 532.762,155.318 C530.414,155.245 529.26,156.37 528.666,158.051 C539.254,157.448 552.773,159.119 542.324,156.685 L542.324,156.685 Z M155.779,151.77 C151.629,152.627 144.016,150.021 142.121,153.136 C146.273,152.279 153.886,154.884 155.779,151.77 L155.779,151.77 Z M155.779,155.318 C151.629,156.176 144.016,153.57 142.121,156.685 C146.273,155.827 153.886,158.433 155.779,155.318 L155.779,155.318 Z M547.787,152.587 C541.84,153.468 532.348,150.805 528.666,153.952 C534.613,153.071 544.105,155.734 547.787,152.587 L547.787,152.587 Z M530.031,149.855 C537.141,149.952 541.141,152.002 546.422,148.488 C541.947,149.083 527.818,147.108 530.031,149.855 L530.031,149.855 Z M528.666,147.123 C535.025,145.123 543.502,149.188 549.152,144.392 C542.957,145.936 530.412,141.131 528.666,147.123 L528.666,147.123 Z M142.121,143.026 C148.776,143.945 151.182,140.621 155.779,143.026 C156.666,138.625 141.235,138.625 142.121,143.026 L142.121,143.026 Z M151.683,137.562 C135.001,137.39 149.313,142.348 155.779,136.196 C153.906,135.574 152.772,137.573 151.683,137.562 L151.683,137.562 Z M528.666,136.196 L549.152,136.196 C547.406,130.203 534.859,135.009 528.666,133.464 L528.666,136.196 L528.666,136.196 Z M538.225,130.733 C517.693,131.144 540.121,133.969 549.152,130.733 C545.66,130.787 541.838,130.66 538.225,130.733 L538.225,130.733 Z M143.486,130.733 C143.409,129.9 143.283,129.115 142.121,129.366 C148.577,136.57 163.12,128.483 143.486,130.733 L143.486,130.733 Z M528.666,128.001 C537.004,127.274 542.473,131.188 547.787,126.635 C542.479,127.292 527.256,125.164 528.666,128.001 L528.666,128.001 Z M157.146,126.635 C152.548,127.5 144.459,124.875 142.121,128.001 C146.72,127.136 154.809,129.761 157.146,126.635 L157.146,126.635 Z M142.121,125.27 C146.438,125.487 150.365,125.318 151.683,122.537 C148.58,123.532 141.025,120.076 142.121,125.27 L142.121,125.27 Z M153.049,119.806 C130.701,120.104 153.533,123.1 163.976,119.806 C160.174,119.848 157.287,119.749 153.049,119.806 L153.049,119.806 Z M516.373,118.44 C528.258,117.967 532.582,118.324 545.055,118.44 C541.547,113.936 519.881,113.936 516.373,118.44 L516.373,118.44 Z M139.39,117.073 C146.854,114.985 160.125,115.157 165.341,115.708 C177.101,116.949 160.026,117.437 151.683,117.073 C145.952,116.889 144.052,119.558 139.39,117.073 L139.39,117.073 Z" id="Fill-9" fill="#FEFEFE" sketch:type="MSShapeGroup" mask="url(#mask-2)"></path>
            </g>
            <path d="M472.438,53.022 C466.777,48.851 459.079,46.736 449.558,46.736 L449.356,46.736 C444.824,46.736 440.514,47.093 436.545,47.797 L436.132,47.87 L436.132,49.095 L436.703,49.014 C438.58,48.744 440.401,48.608 442.114,48.608 L444.78,48.608 C453.658,48.608 461.266,50.647 467.345,54.634 C470.496,57.267 472.62,59.636 473.668,61.691 C474.628,63.413 475.114,65.722 475.114,68.553 C475.114,72.94 473.56,77.091 470.509,80.877 C467.739,84.026 463.541,86.365 458.031,87.829 C452.9,89.187 448.29,89.875 444.329,89.875 C430.085,89.875 414.599,83.769 398.288,71.718 C394.35,68.982 387.354,63.529 377.489,55.506 C369.048,48.901 363.289,45.155 359.907,44.064 C357.876,43.281 356.005,42.884 354.345,42.884 C350.337,42.884 346.653,44.04 343.351,46.357 C341.399,48.094 340.108,50.112 339.457,52.373 C338.803,50.108 337.501,48.081 335.519,46.321 C332.261,44.04 328.576,42.884 324.567,42.884 C322.909,42.884 321.038,43.281 319.033,44.054 C315.622,45.154 309.862,48.901 301.418,55.511 C291.573,63.516 284.576,68.969 280.61,71.727 C264.313,83.769 248.828,89.875 234.583,89.875 C230.622,89.875 226.012,89.187 220.881,87.829 C215.372,86.365 211.173,84.027 208.417,80.893 C205.354,77.091 203.8,72.939 203.8,68.553 C203.8,65.719 204.286,63.411 205.253,61.674 C206.289,59.638 208.413,57.27 211.521,54.668 C217.646,50.647 225.253,48.608 234.132,48.608 L236.798,48.608 C238.511,48.608 240.332,48.744 242.209,49.014 L242.78,49.095 L242.78,47.87 L242.368,47.797 C238.396,47.093 234.086,46.736 229.556,46.736 L229.353,46.736 C219.833,46.736 212.135,48.851 206.439,53.048 C201.22,57.621 198.573,62.314 198.573,67.087 C198.573,72.481 200.634,77.378 204.711,81.658 C207.389,84.254 210.093,86.183 212.76,87.398 C219.833,90.406 226.872,91.931 233.681,91.931 C239.101,91.931 244.9,91.045 250.917,89.298 C261.289,86.362 273.801,79.269 288.11,68.213 L301.948,57.249 C312.1,48.868 319.473,44.619 323.789,44.614 L325.95,44.934 C328.27,45.286 330.597,46.333 332.817,48.006 C334.988,50.131 336.089,52.478 336.089,54.984 C336.089,57.94 334.842,60.56 332.428,62.735 C329.409,64.865 326.223,65.945 322.958,65.945 L322.405,65.945 C321.321,65.945 320.056,65.854 318.645,65.673 L318.081,65.601 L318.081,66.772 L318.493,66.846 C321.609,67.406 323.711,67.679 324.919,67.679 L325.823,67.679 C329.806,67.679 333.192,66.626 335.929,64.514 C337.674,62.841 338.847,61.023 339.458,59.086 C340.072,61.027 341.253,62.854 343.024,64.549 C345.72,66.626 349.106,67.679 353.089,67.679 L353.993,67.679 C355.201,67.679 357.304,67.406 360.42,66.846 L360.831,66.772 L360.831,65.601 L360.268,65.673 C358.856,65.854 357.591,65.945 356.507,65.945 L355.954,65.945 C352.689,65.945 349.503,64.865 346.53,62.772 C344.072,60.562 342.825,57.941 342.825,54.984 C342.825,52.476 343.925,50.128 346.047,48.048 C348.313,46.334 350.64,45.286 352.961,44.934 L355.05,44.619 C359.436,44.619 366.809,48.869 376.97,57.256 L390.807,68.216 C405.11,79.269 417.623,86.362 427.992,89.298 C434.012,91.045 439.813,91.931 445.233,91.931 C452.041,91.931 459.079,90.405 466.161,87.393 C468.814,86.185 471.519,84.256 474.215,81.644 C478.278,77.376 480.339,72.479 480.339,66.994 C480.339,62.313 477.691,57.621 472.438,53.022" id="Fill-11" fill="#FEFEFE" sketch:type="MSShapeGroup"></path>
            <path d="M346.913,19.916 C347.479,19.916 347.956,19.716 348.337,19.317 L347.556,19.249 L345.946,19.663 C345.946,19.786 346.267,19.869 346.913,19.916 L346.913,19.916 Z M345.37,24.312 C346.214,24.51 346.942,24.611 347.556,24.611 L348.337,24.449 L348.337,24.312 C347.878,23.928 347.349,23.736 346.751,23.736 C346.458,23.736 345.999,23.905 345.37,24.241 L345.37,24.312 L345.37,24.312 Z M343.067,26.497 C343.974,27.111 344.841,27.418 345.669,27.418 L345.829,27.418 C347.425,27.325 348.407,26.851 348.774,25.99 L348.845,25.692 L348.774,25.692 L348.269,25.738 C347.21,25.738 346.005,25.454 344.657,24.886 L343.067,26.497 L343.067,26.497 Z M343.067,17.937 L344.657,19.317 C345.731,18.842 346.765,18.605 347.763,18.605 L348.706,18.741 L348.845,18.074 C348.431,16.878 347.464,16.279 345.946,16.279 L345.876,16.279 C344.786,16.647 343.851,17.2 343.067,17.937 L343.067,17.937 Z M342.425,31.33 C342.853,31.575 343.276,31.697 343.69,31.697 L344.356,31.697 C345.294,31.697 345.821,31.292 345.946,30.479 C345.808,30.034 345.478,29.811 344.954,29.811 C344.265,29.811 343.421,30.318 342.425,31.33 L342.425,31.33 Z M344.151,23.736 C344.933,23.337 345.653,23.138 346.313,23.138 L346.819,23.138 C347.694,23.138 348.468,23.429 349.144,24.012 C350.063,23.552 350.524,22.831 350.524,21.85 C350.218,20.452 349.78,19.754 349.212,19.754 C348.583,20.584 347.862,20.997 347.05,20.997 C346.39,20.997 345.692,20.776 344.954,20.329 C344.663,20.422 343.819,21.152 342.425,22.516 C342.577,22.746 343.153,23.152 344.151,23.736 L344.151,23.736 Z M342.263,13.449 C342.708,13.71 343.046,13.84 343.276,13.84 L343.644,13.84 C344.933,13.779 345.577,13.557 345.577,13.172 L345.577,13.081 C345.577,12.605 345.271,12.322 344.657,12.23 C343.997,12.26 343.198,12.667 342.263,13.449 L342.263,13.449 Z M340.237,24.519 L341.757,25.692 C342.737,24.664 343.345,24.15 343.575,24.15 L341.964,22.791 L340.237,24.519 L340.237,24.519 Z M340.237,20.538 L341.251,21.412 C341.849,20.874 342.761,20.292 343.987,19.663 L343.987,19.617 L342.562,18.305 L340.237,20.538 L340.237,20.538 Z M339.663,43.39 C339.847,43.39 340.015,43.12 340.169,42.583 L339.87,41.572 C339.456,41.986 339.226,42.346 339.179,42.652 C339.239,43.144 339.401,43.39 339.663,43.39 L339.663,43.39 Z M339.247,2.357 C339.462,2.156 339.669,1.812 339.87,1.321 C339.776,0.784 339.64,0.516 339.456,0.516 C339.071,0.623 338.88,0.915 338.88,1.39 C338.88,1.605 339.003,1.928 339.247,2.357 L339.247,2.357 Z M338.536,31.03 C338.673,31.03 339.024,31.322 339.593,31.905 C340.222,31.231 340.606,30.894 340.743,30.894 L339.731,29.88 C339.071,30.386 338.673,30.739 338.536,30.94 L338.536,31.03 L338.536,31.03 Z M339.386,14.116 L340.583,12.873 C340.46,12.873 340.099,12.59 339.501,12.023 L338.374,13.081 L339.386,14.116 L339.386,14.116 Z M339.179,40.052 C340.376,38.486 340.974,37.405 340.974,36.808 L340.974,35.955 C340.974,35.434 340.759,34.637 340.331,33.563 C338.825,35.235 338.075,36.678 338.075,37.889 C338.075,38.687 338.442,39.408 339.179,40.052 L339.179,40.052 Z M338.741,10.365 C340.276,8.57 341.042,7.152 341.042,6.107 C341.042,5.172 340.683,4.45 339.962,3.945 C338.702,5.341 338.075,6.423 338.075,7.19 L338.075,7.972 C338.075,8.493 338.296,9.292 338.741,10.365 L338.741,10.365 Z M337.868,22.562 L338.741,23.299 L338.88,23.299 C339.938,22.362 340.606,21.833 340.882,21.711 L340.882,21.641 L339.87,20.836 L337.868,22.562 L337.868,22.562 Z M339.04,28.431 L341.343,26.036 L339.87,24.886 L339.802,24.886 C338.466,26.191 337.751,26.842 337.661,26.842 L339.04,28.431 L339.04,28.431 Z M339.179,19.455 L341.597,17.316 C341.597,17.208 341.073,16.594 340.03,15.474 L337.661,18.029 C338.55,18.981 339.056,19.455 339.179,19.455 L339.179,19.455 Z M335.267,20.03 C335.62,20.245 336.196,20.736 336.993,21.503 L338.741,19.916 L337.085,18.442 C336.731,18.857 336.126,19.386 335.267,20.03 L335.267,20.03 Z M336.579,25.692 L338.536,23.598 L337.591,22.791 C336.933,23.329 336.132,23.851 335.198,24.358 L336.579,25.692 L336.579,25.692 Z M334.347,31.697 C335.144,31.697 335.956,31.292 336.786,30.479 C336.356,30.218 336.019,30.088 335.774,30.088 L335.565,30.088 C334.169,30.088 333.472,30.402 333.472,31.03 C333.687,31.476 333.978,31.697 334.347,31.697 L334.347,31.697 Z M334.116,14.116 C334.913,14.116 335.788,13.603 336.741,12.574 C336.28,12.344 335.833,12.23 335.405,12.23 L334.761,12.23 C333.841,12.23 333.312,12.568 333.173,13.241 L333.173,13.38 C333.173,13.87 333.487,14.116 334.116,14.116 L334.116,14.116 Z M332.392,20.168 C332.804,20.168 333.165,20.03 333.472,19.754 L333.472,19.663 L332.093,19.455 L330.872,19.663 C331.241,19.999 331.747,20.168 332.392,20.168 L332.392,20.168 Z M330.571,24.818 L331.425,24.886 C332.146,24.886 332.827,24.642 333.472,24.15 L332.298,24.012 C331.563,24.012 330.987,24.28 330.571,24.818 L330.571,24.818 Z M333.173,27.624 C333.571,27.624 334.538,27.096 336.073,26.036 L336.073,25.99 L334.69,24.749 C333.479,25.408 332.423,25.738 331.517,25.738 L330.274,25.53 L330.274,25.623 C330.274,26.759 331.187,27.426 333.013,27.624 L333.173,27.624 L333.173,27.624 Z M330.204,18.534 L331.009,18.374 C331.991,18.374 333.026,18.688 334.116,19.317 C334.7,18.842 335.351,18.213 336.073,17.43 C335.198,16.817 334.263,16.51 333.265,16.51 C331.53,16.663 330.565,17.139 330.366,17.937 L330.204,18.534 L330.204,18.534 Z M329.63,24.449 L329.698,24.449 C330.356,23.437 331.126,22.93 331.999,22.93 C332.644,22.93 333.427,23.198 334.347,23.736 C335.374,22.953 336.118,22.324 336.579,21.85 C336.058,21.19 335.452,20.66 334.761,20.261 C334.054,20.599 333.39,20.767 332.759,20.767 L332.161,20.767 C331.517,20.767 330.864,20.553 330.204,20.123 L330.159,20.123 C329.13,20.736 328.616,21.503 328.616,22.424 C328.616,23.176 328.954,23.851 329.63,24.449 L329.63,24.449 Z M327.604,21.757 C327.604,20.898 328.011,20.061 328.823,19.249 L329.399,18.902 L329.329,18.236 C329.329,16.824 330.104,15.859 331.653,15.335 L332.599,15.268 C333.671,15.268 334.999,15.85 336.579,17.017 L339.087,14.323 L338.075,13.334 C336.661,14.485 335.489,15.06 334.554,15.06 L334.392,15.06 C332.995,15.06 332.298,14.4 332.298,13.081 C332.298,12.206 332.827,11.608 333.886,11.285 C335.128,11.285 336.233,11.601 337.2,12.23 L338.466,10.734 C337.546,9.107 337.085,7.812 337.085,6.845 C337.085,5.31 337.667,3.952 338.835,2.771 C338.327,2.434 338.075,2.049 338.075,1.621 L338.075,1.483 C338.259,0.5 338.718,0.008 339.456,0.008 C340.146,0.008 340.651,0.57 340.974,1.69 C340.974,2.288 340.759,2.862 340.331,3.416 C341.235,4.106 341.812,4.904 342.056,5.808 L342.124,6.107 L342.124,6.544 C342.124,8.018 341.351,9.721 339.802,11.654 L339.731,11.654 C339.731,11.777 340.114,12.138 340.882,12.735 C341.987,11.814 343.077,11.356 344.151,11.356 C345.745,11.509 346.542,12.114 346.542,13.172 L346.542,13.334 C346.542,14.224 345.845,14.768 344.448,14.968 C343.896,14.968 342.944,14.631 341.597,13.956 L340.376,15.175 L341.896,16.809 C343.458,15.781 344.886,15.268 346.175,15.268 C347.571,15.268 348.698,16.087 349.558,17.73 L349.72,18.605 L349.72,18.673 L349.649,19.156 C350.755,19.939 351.308,20.936 351.308,22.148 C351.263,23.851 350.731,24.91 349.72,25.323 L349.765,25.53 C349.765,27.033 348.997,28.055 347.464,28.591 L346.452,28.638 C345.407,28.638 344.112,28.085 342.562,26.981 C341.118,28.345 340.276,29.222 340.03,29.605 L340.974,30.594 C342.538,29.428 343.767,28.845 344.657,28.845 C345.868,28.845 346.565,29.359 346.751,30.386 L346.819,30.823 C346.819,31.621 346.337,32.205 345.37,32.573 L345.071,32.618 C343.919,32.618 342.862,32.313 341.896,31.697 L340.583,33.102 C341.565,34.713 342.056,36.041 342.056,37.083 C342.056,38.526 341.481,39.883 340.331,41.157 C340.759,41.509 340.997,41.885 341.042,42.284 L341.042,42.445 C341.042,43.274 340.528,43.749 339.501,43.872 C338.61,43.581 338.165,43.005 338.165,42.146 C338.165,41.61 338.388,41.057 338.835,40.489 L338.835,40.397 C338.251,40.074 337.761,39.577 337.36,38.902 C337.116,38.486 336.993,38.05 336.993,37.59 L336.993,37.383 C336.993,35.91 337.774,34.206 339.341,32.274 L339.341,32.205 C339.048,31.866 338.657,31.53 338.165,31.192 C337.108,32.112 336.048,32.573 334.991,32.573 C333.702,32.573 332.905,32.082 332.599,31.101 L332.505,30.685 L332.505,30.594 C332.505,29.795 333.204,29.243 334.599,28.936 C335.06,28.936 336.011,29.251 337.452,29.88 L337.591,29.88 C337.729,29.651 338.112,29.289 338.741,28.799 L337.292,27.119 C335.56,28.131 334.116,28.638 332.966,28.638 C331.493,28.638 330.335,27.772 329.491,26.036 L329.399,25.394 L329.399,25.116 C328.202,24.365 327.604,23.245 327.604,21.757 L327.604,21.757 Z" id="Fill-12" fill="#FEFEFE" sketch:type="MSShapeGroup"></path>
            <path d="M509.751,217.038 C510.075,216.315 510.446,215.769 510.853,215.42 C511.285,215.052 511.964,214.626 512.87,214.154 C513.768,213.689 514.866,213.326 516.138,213.079 C517.362,212.839 518.511,212.928 519.56,213.34 C520.56,213.731 521.21,214.196 521.438,214.686 C521.669,215.182 521.708,215.618 521.558,216.019 C521.389,216.461 521.092,216.838 520.65,217.171 C520.194,217.514 519.608,217.775 518.911,217.946 C518.219,218.115 517.546,218.131 516.896,217.997 C516.246,217.862 515.378,217.381 514.317,216.567 L513.608,216.022 L513.516,216.911 C513.378,218.231 513.098,218.82 512.887,219.082 C512.669,219.353 512.121,219.877 510.748,220.861 C510.387,220.479 510.061,220.041 509.774,219.555 C509.456,218.55 509.447,217.704 509.751,217.038 L509.751,217.038 Z M528.438,214.204 C528.172,212.807 527.59,211.498 526.707,210.317 C525.813,209.118 524.41,208.149 522.535,207.435 C520.683,206.734 518.927,206.433 517.29,206.536 C515.684,206.643 514.032,206.977 512.384,207.529 C510.742,208.079 509.169,208.761 507.707,209.558 C506.266,210.344 504.362,211.411 502,212.762 C499.682,214.088 497.864,214.987 496.598,215.435 C495.357,215.873 494.229,216.102 493.162,216.114 C492.237,216.114 491.361,215.893 490.559,215.455 C489.807,215.047 489.421,214.447 489.377,213.625 C489.335,212.792 489.791,212.024 490.771,211.276 C491.813,210.484 492.861,209.984 493.888,209.789 C494.881,209.605 495.662,209.628 496.178,209.86 C496.646,210.071 496.905,210.376 496.994,210.817 C497.072,211.215 496.786,211.681 496.142,212.201 C495.444,212.765 494.21,212.999 492.493,212.902 L492.361,213.89 C494.427,214.323 496.028,214.129 497.139,213.319 C498.286,212.484 498.821,211.575 498.729,210.62 C498.665,209.949 498.318,209.051 497.038,208.587 C496.122,208.254 494.967,208.205 493.595,208.439 C492.227,208.673 490.92,209.278 489.71,210.235 C488.425,211.251 487.828,212.44 487.938,213.767 C488.049,215.102 488.658,216.064 489.749,216.626 C490.739,217.138 491.8,217.436 492.902,217.513 C494.002,217.589 495.415,217.362 497.1,216.835 C498.745,216.32 500.217,215.756 501.475,215.161 C502.723,214.571 504.496,213.561 506.744,212.158 C508.941,210.789 510.913,209.784 512.603,209.174 C514.282,208.568 515.896,208.176 517.396,208.008 C518.853,207.847 520.417,208.096 522.063,208.749 C523.689,209.396 524.901,210.228 525.664,211.219 C526.422,212.214 526.885,213.313 527.04,214.484 C527.193,215.649 526.968,216.736 526.352,217.806 C525.734,218.881 524.673,219.848 523.197,220.68 C521.693,221.527 519.749,222.114 517.416,222.429 C515.417,222.698 513.597,222.447 511.979,221.68 C512.719,221.136 513.303,220.629 513.752,220.143 C514.185,219.678 514.479,219.135 514.636,218.521 C515.306,218.958 515.978,219.252 516.641,219.397 C517.529,219.591 518.427,219.565 519.298,219.321 C520.138,219.086 520.905,218.734 521.582,218.275 C522.276,217.8 522.813,217.207 523.175,216.511 C523.578,215.74 523.516,214.823 522.989,213.782 C522.47,212.767 521.472,212.056 520.021,211.669 C518.635,211.301 517.214,211.253 515.801,211.527 C514.418,211.792 513.226,212.176 512.258,212.666 C511.285,213.157 510.417,213.824 509.678,214.648 C508.924,215.491 508.458,216.393 508.293,217.325 C508.132,218.244 508.199,219.17 508.524,220.147 C508.79,220.67 509.097,221.12 509.438,221.495 C508.532,221.826 507.628,222.049 506.741,222.16 C505.671,222.295 504.619,222.116 503.607,221.623 C502.582,221.121 501.553,220.156 500.548,218.756 L499.7,219.281 C500.637,221.043 501.764,222.268 503.047,222.92 C504.333,223.575 505.652,223.823 506.952,223.652 C508.138,223.5 509.4,223.116 510.709,222.508 C512.353,223.498 514.198,224 516.198,224 C516.618,224 517.047,223.978 517.483,223.934 C520.047,223.678 522.218,223.06 523.936,222.097 C525.67,221.123 526.936,219.918 527.697,218.515 C528.465,217.093 528.714,215.642 528.438,214.204 L528.438,214.204 Z" id="Fill-13" fill="#FEFEFE" sketch:type="MSShapeGroup"></path>
            <path d="M160.001,217.946 C159.304,217.776 158.719,217.515 158.262,217.171 C157.82,216.839 157.523,216.462 157.354,216.021 C157.203,215.618 157.242,215.182 157.474,214.686 C157.701,214.196 158.351,213.732 159.353,213.34 C160.4,212.928 161.55,212.84 162.774,213.079 C164.044,213.326 165.144,213.689 166.041,214.154 C166.948,214.626 167.627,215.052 168.057,215.419 C168.464,215.768 168.835,216.313 169.161,217.041 C169.464,217.705 169.455,218.551 169.136,219.555 C168.851,220.041 168.524,220.479 168.164,220.861 C166.791,219.877 166.242,219.353 166.024,219.081 C165.813,218.82 165.533,218.23 165.396,216.911 L165.303,216.022 L164.594,216.567 C163.533,217.381 162.666,217.862 162.017,217.997 C161.365,218.132 160.691,218.116 160.001,217.946 L160.001,217.946 Z M189.201,210.236 C187.992,209.278 186.686,208.673 185.317,208.439 C183.942,208.204 182.788,208.255 181.874,208.587 C180.593,209.051 180.247,209.949 180.183,210.62 C180.091,211.576 180.626,212.484 181.772,213.319 C182.884,214.129 184.484,214.323 186.55,213.89 L186.418,212.902 C184.706,212.997 183.468,212.766 182.77,212.201 C182.126,211.681 181.839,211.216 181.918,210.818 C182.006,210.376 182.265,210.072 182.732,209.861 C183.25,209.628 184.031,209.605 185.022,209.789 C186.05,209.984 187.1,210.484 188.142,211.276 C189.121,212.024 189.577,212.792 189.534,213.624 C189.49,214.459 189.115,215.041 188.354,215.455 C187.551,215.892 186.676,216.113 185.669,216.113 L185.664,216.113 C184.682,216.102 183.554,215.873 182.313,215.435 C181.047,214.987 179.229,214.087 176.912,212.761 C174.549,211.411 172.646,210.344 171.204,209.557 C169.742,208.761 168.169,208.079 166.529,207.53 C164.88,206.977 163.229,206.643 161.621,206.536 C159.988,206.43 158.228,206.733 156.377,207.435 C154.503,208.149 153.1,209.117 152.206,210.317 C151.322,211.498 150.739,212.807 150.474,214.204 C150.197,215.643 150.447,217.093 151.216,218.516 C151.977,219.918 153.242,221.123 154.978,222.098 C156.692,223.06 158.863,223.678 161.428,223.934 C161.864,223.978 162.293,224 162.713,224 C164.714,224 166.559,223.498 168.202,222.508 C169.511,223.116 170.773,223.5 171.959,223.652 C173.27,223.821 174.581,223.574 175.863,222.92 C177.148,222.268 178.274,221.043 179.211,219.281 L178.363,218.756 C177.359,220.155 176.33,221.12 175.306,221.623 C174.292,222.116 173.239,222.294 172.17,222.16 C171.282,222.049 170.378,221.825 169.473,221.494 C169.817,221.113 170.131,220.645 170.417,220.075 C170.713,219.17 170.78,218.244 170.618,217.324 C170.453,216.393 169.987,215.491 169.232,214.647 C168.494,213.824 167.627,213.157 166.654,212.666 C165.687,212.176 164.494,211.792 163.111,211.527 C161.696,211.254 160.277,211.302 158.892,211.669 C157.441,212.056 156.442,212.767 155.922,213.783 C155.396,214.822 155.333,215.739 155.736,216.511 C156.1,217.207 156.636,217.801 157.332,218.276 C158.008,218.735 158.775,219.086 159.613,219.321 C160.484,219.566 161.383,219.59 162.271,219.397 C162.935,219.252 163.606,218.958 164.276,218.521 C164.432,219.134 164.727,219.677 165.159,220.142 C165.609,220.629 166.193,221.136 166.933,221.68 C165.313,222.447 163.493,222.697 161.495,222.429 C159.164,222.114 157.219,221.527 155.715,220.68 C154.239,219.848 153.178,218.881 152.56,217.806 C151.943,216.735 151.718,215.648 151.871,214.484 C152.026,213.313 152.489,212.215 153.247,211.221 C154.009,210.228 155.221,209.397 156.85,208.749 C158.495,208.096 160.061,207.846 161.516,208.008 C163.017,208.176 164.63,208.568 166.309,209.173 C167.998,209.784 169.969,210.789 172.168,212.158 C174.416,213.561 176.189,214.571 177.438,215.161 C178.692,215.756 180.165,216.319 181.813,216.835 C183.499,217.362 184.909,217.592 186.01,217.513 C187.111,217.436 188.173,217.138 189.162,216.626 C190.254,216.064 190.863,215.102 190.973,213.768 C191.084,212.441 190.488,211.251 189.201,210.236 L189.201,210.236 Z" id="Fill-14" fill="#FEFEFE" sketch:type="MSShapeGroup"></path>
            <g id="Boulangerie" transform="translate(198.000000, 210.000000)" fill="#FEFEFE" sketch:type="MSShapeGroup">
                <path d="M21.123,8.845 C21.123,7.813 20.499,7.284 19.274,7.284 L6.554,7.284 L6.554,10.165 L19.371,10.165 C20.667,10.141 21.123,9.445 21.123,8.845 L21.123,8.845 Z M17.402,2.844 L6.554,2.844 L6.554,5.101 L17.307,5.101 C18.339,5.076 18.723,4.525 18.723,4.044 C18.723,3.277 18.291,2.893 17.402,2.844 L17.402,2.844 Z M23.331,8.845 C23.331,10.597 21.939,12.373 19.274,12.373 L-0.047,12.373 L-0.047,10.165 L4.321,10.165 L4.321,2.844 L-0.047,2.844 L-0.047,0.636 L17.211,0.636 C18.723,0.636 19.587,1.237 20.043,1.716 C20.595,2.317 20.907,3.156 20.907,4.044 C20.907,4.477 20.835,4.885 20.667,5.269 C21.507,5.509 22.035,5.916 22.396,6.277 C22.995,6.948 23.331,7.861 23.331,8.845 L23.331,8.845 Z" id="Fill-15"></path>
                <path d="M29.354,6.517 C29.354,8.629 31.082,10.333 33.193,10.333 L40.25,10.333 C42.314,10.309 44.019,8.605 44.019,6.517 C44.019,4.452 42.339,2.725 40.274,2.7 L33.193,2.7 C31.082,2.7 29.354,4.404 29.354,6.517 L29.354,6.517 Z M28.945,10.741 C27.817,9.613 27.193,8.101 27.193,6.517 C27.193,4.908 27.817,3.42 28.945,2.292 C30.073,1.164 31.586,0.54 33.193,0.54 L40.299,0.54 C41.883,0.565 43.347,1.189 44.451,2.317 C45.555,3.445 46.179,4.933 46.179,6.517 C46.179,8.101 45.555,9.589 44.451,10.717 C43.347,11.845 41.858,12.469 40.274,12.493 L33.193,12.493 C31.586,12.493 30.073,11.869 28.945,10.741 L28.945,10.741 Z" id="Fill-16"></path>
                <path d="M75.267,0.636 L75.267,2.844 L70.898,2.844 L70.898,6.156 L70.874,6.156 C70.946,7.669 70.418,9.133 69.435,10.285 C68.378,11.509 66.914,12.253 65.33,12.349 C65.258,12.373 65.186,12.373 60.722,12.373 L60.313,12.373 L60.289,12.373 C58.777,12.373 57.337,11.821 56.233,10.789 C55.105,9.757 54.409,8.341 54.313,6.805 L54.313,6.757 L54.289,2.844 L50.017,2.844 L50.017,0.636 L60.985,0.636 L60.985,2.844 L56.545,2.844 L56.545,6.685 C56.713,8.629 58.346,10.141 60.289,10.141 L60.313,10.141 L60.722,10.141 C63.458,10.141 64.97,10.141 65.186,10.117 C66.17,10.045 67.082,9.589 67.73,8.845 C68.402,8.077 68.714,7.093 68.643,6.085 L68.643,2.844 L64.273,2.844 L64.273,0.636 L75.267,0.636" id="Fill-17"></path>
                <path d="M100.322,7.093 L100.322,12.373 L79.009,12.373 L79.009,10.165 L83.377,10.165 L83.377,2.844 L79.009,2.844 L79.009,0.636 L89.785,0.636 L89.785,2.844 L85.633,2.844 L85.633,10.165 L98.114,10.165 L98.114,7.093 L100.322,7.093" id="Fill-18"></path>
                <path d="M113.209,6.253 L119.041,6.253 L116.113,2.58 L113.209,6.253 L113.209,6.253 Z M124.922,10.357 L129.026,10.357 L129.026,12.373 L118.897,12.373 L118.897,10.357 L122.306,10.357 L120.506,8.101 L111.745,8.101 L109.993,10.333 L113.377,10.333 L113.377,12.349 L103.272,12.349 L103.272,10.333 L107.353,10.333 L113.473,2.628 L109.032,2.628 L109.032,0.565 L117.146,0.565 L124.922,10.357 L124.922,10.357 Z" id="Fill-19"></path>
                <path d="M159.146,0.66 L159.146,2.844 L154.777,2.844 L154.777,12.398 L152.185,12.398 L139.104,3.132 L139.104,10.189 L143.473,10.189 L143.473,12.373 L132.503,12.373 L132.503,10.189 L136.872,10.189 L136.872,2.844 L132.503,2.844 L132.503,0.66 L139.464,0.636 L152.545,9.901 L152.545,2.844 L148.152,2.844 L148.152,0.66 L159.146,0.66" id="Fill-20"></path>
                <path d="M180.721,8.029 L179.161,8.029 C179.113,8.917 178.705,9.733 178.009,10.429 C176.665,11.797 174.192,12.589 171.433,12.589 L171.36,12.589 C167.952,12.589 162.647,11.125 162.647,6.612 C162.647,2.508 166.872,0.372 170.904,0.372 C173.232,0.372 175.704,0.996 177.265,2.508 L177.265,0.924 L179.185,0.924 L179.185,5.292 L179.161,5.292 L179.161,5.317 L177.24,5.317 C176.809,3.036 173.593,2.388 170.977,2.388 C168,2.388 165.071,3.708 165,6.612 C164.928,9.613 168.936,10.621 171.36,10.621 C173.641,10.621 175.681,10.07 176.665,9.085 C177.001,8.749 177.169,8.389 177.217,8.029 L170.952,8.029 L170.952,6.229 L180.721,6.229 L180.721,8.029" id="Fill-21"></path>
                <path d="M207.769,7.645 L207.769,12.373 L184.247,12.373 L184.247,10.165 L188.615,10.165 L188.615,2.844 L184.247,2.844 L184.247,0.636 L207.697,0.636 L207.697,0.66 L207.721,0.66 L207.721,5.389 L205.537,5.389 L205.537,2.844 L190.871,2.844 L190.871,5.101 L198.313,5.101 L198.313,3.828 L200.521,3.828 L200.521,8.557 L198.313,8.557 L198.313,7.284 L190.871,7.284 L190.871,10.165 L205.561,10.165 L205.561,7.645 L207.769,7.645" id="Fill-22"></path>
                <path d="M220.079,2.844 L220.079,5.101 L230.856,5.101 C231.889,5.076 232.272,4.525 232.272,4.069 C232.272,3.3 231.841,2.893 230.952,2.844 L220.079,2.844 L220.079,2.844 Z M237.721,11.053 C237.193,11.581 236.232,12.253 234.577,12.398 L234.192,12.398 C233.28,12.398 232.417,12.133 231.601,11.629 C230.832,11.125 230.185,10.501 229.513,9.829 C229.152,9.469 228.792,9.085 228.408,8.749 C226.872,7.404 226.176,7.309 226.176,7.309 C226.176,7.309 226.224,7.333 226.296,7.309 L220.079,7.309 L220.079,10.189 L224.472,10.189 L224.472,12.398 L213.455,12.398 L213.455,10.189 L217.848,10.189 L217.848,2.844 L213.455,2.844 L213.455,0.636 L230.761,0.636 C232.272,0.636 233.137,1.237 233.616,1.716 C234.169,2.34 234.48,3.156 234.48,4.069 C234.48,5.629 233.257,7.237 230.952,7.309 L230.881,7.309 L230.761,7.309 L230.112,7.309 C230.448,7.621 230.761,7.957 231.072,8.269 C232.368,9.541 233.16,10.285 234.409,10.189 C236.377,10.045 236.473,8.893 236.473,8.677 L238.681,8.677 C238.681,9.541 238.321,10.405 237.721,11.053 L237.721,11.053 Z" id="Fill-23"></path>
                <path d="M253.775,0.636 L253.775,2.821 L249.431,2.821 L249.431,10.189 L253.775,10.189 L253.775,12.373 L242.83,12.373 L242.83,10.189 L247.199,10.189 L247.199,2.821 L242.83,2.821 L242.83,0.636 L253.775,0.636" id="Fill-24"></path>
                <path d="M281.473,7.645 L281.473,12.373 L257.951,12.373 L257.951,10.165 L262.319,10.165 L262.319,2.844 L257.951,2.844 L257.951,0.636 L281.401,0.636 L281.401,0.66 L281.425,0.66 L281.425,5.389 L279.241,5.389 L279.241,2.844 L264.575,2.844 L264.575,5.101 L272.017,5.101 L272.017,3.828 L274.225,3.828 L274.225,8.557 L272.017,8.557 L272.017,7.284 L264.575,7.284 L264.575,10.165 L279.265,10.165 L279.265,7.645 L281.473,7.645" id="Fill-25"></path>
            </g>
            <g id="Depuis-2014" transform="translate(285.000000, 76.000000)" fill="#FEFEFE" sketch:type="MSShapeGroup">
                <path d="M11.309,4.682 C11.309,3.906 11.203,3.278 10.992,2.796 C10.781,2.314 10.505,1.954 10.165,1.718 C9.825,1.482 9.453,1.324 9.049,1.245 C8.646,1.167 8.205,1.127 7.726,1.127 L7.263,1.127 L4.437,10.354 C4.323,10.788 4.266,11.059 4.266,11.167 C4.266,11.778 4.802,12.084 5.873,12.084 C7.014,12.084 7.953,11.772 8.69,11.148 C9.428,10.524 10.017,9.698 10.458,8.671 C10.786,7.896 11.009,7.136 11.129,6.393 C11.249,5.649 11.309,5.079 11.309,4.682 L11.309,4.682 Z M14.041,5.532 C14.041,6.087 13.984,6.647 13.871,7.211 C13.757,7.775 13.571,8.335 13.313,8.893 C13.054,9.451 12.706,9.984 12.268,10.491 C11.83,10.998 11.306,11.45 10.694,11.847 C10.127,12.206 9.525,12.469 8.889,12.636 C8.252,12.803 7.647,12.907 7.074,12.948 C6.5,12.989 5.842,13.01 5.098,13.01 L0.003,13.01 L0.277,12.14 C0.731,12.14 1.049,12.019 1.232,11.777 C1.415,11.534 1.578,11.176 1.723,10.703 L4.172,2.772 C4.285,2.369 4.342,2.092 4.342,1.94 C4.342,1.575 4.229,1.342 4.001,1.241 C3.775,1.14 3.488,1.08 3.141,1.061 L3.396,0.192 L7.906,0.192 C8.656,0.192 9.305,0.233 9.853,0.315 C10.401,0.396 10.946,0.595 11.488,0.91 C12.528,1.496 13.213,2.208 13.544,3.047 C13.875,3.885 14.041,4.714 14.041,5.532 L14.041,5.532 Z" id="Fill-26"></path>
                <path d="M21.133,6.525 C21.133,6.317 21.061,6.127 20.916,5.953 C20.771,5.78 20.572,5.693 20.32,5.693 C19.879,5.693 19.474,5.846 19.105,6.152 C18.736,6.457 18.426,6.818 18.174,7.234 C17.922,7.65 17.715,8.072 17.555,8.501 C17.394,8.929 17.295,9.194 17.257,9.295 C18.536,9.081 19.502,8.718 20.154,8.208 C20.807,7.697 21.133,7.136 21.133,6.525 L21.133,6.525 Z M23.127,6.563 C23.127,6.822 23.049,7.119 22.891,7.456 C22.733,7.794 22.445,8.151 22.026,8.529 C21.607,8.907 21.008,9.241 20.23,9.531 C19.452,9.821 18.473,10.02 17.295,10.127 L17.068,10.146 C17.018,10.398 16.992,10.631 16.992,10.845 C16.992,11.312 17.104,11.647 17.328,11.852 C17.552,12.057 17.878,12.159 18.306,12.159 C19.251,12.159 20.156,11.649 21.02,10.628 L22.021,10.628 C21.631,11.227 21.039,11.819 20.244,12.405 C19.45,12.991 18.508,13.284 17.418,13.284 C16.662,13.284 16.014,13.081 15.475,12.674 C14.937,12.268 14.667,11.671 14.667,10.883 C14.667,9.919 14.935,8.982 15.47,8.07 C16.006,7.16 16.737,6.42 17.664,5.849 C18.59,5.279 19.598,4.994 20.688,4.994 C21.564,4.994 22.19,5.142 22.565,5.438 C22.94,5.734 23.127,6.109 23.127,6.563 L23.127,6.563 Z" id="Fill-27"></path>
                <path d="M31.571,7.574 C31.571,7.184 31.469,6.834 31.264,6.525 C31.059,6.217 30.768,6.062 30.39,6.062 C29.948,6.062 29.528,6.254 29.127,6.638 C28.728,7.023 28.373,7.514 28.064,8.113 C27.869,8.491 27.707,8.871 27.577,9.252 C27.448,9.633 27.349,9.985 27.28,10.306 C27.21,10.628 27.176,10.889 27.176,11.091 C27.176,11.494 27.298,11.844 27.544,12.14 C27.79,12.437 28.118,12.585 28.527,12.585 C29.12,12.585 29.649,12.298 30.116,11.724 C30.582,11.151 30.941,10.467 31.193,9.673 C31.445,8.879 31.571,8.179 31.571,7.574 L31.571,7.574 Z M33.897,7.801 C33.897,8.469 33.769,9.13 33.514,9.782 C33.259,10.434 32.902,11.023 32.446,11.549 C31.989,12.076 31.448,12.496 30.825,12.811 C30.201,13.127 29.545,13.284 28.858,13.284 C28.304,13.284 27.862,13.193 27.535,13.01 C27.207,12.827 26.914,12.581 26.656,12.273 L25.644,15.581 C25.556,15.871 25.512,16.06 25.512,16.149 C25.512,16.362 25.622,16.506 25.843,16.578 C26.063,16.651 26.41,16.687 26.882,16.687 L27.346,16.687 L27.1,17.519 L21.116,17.519 L21.372,16.687 L21.74,16.687 C22.168,16.687 22.482,16.655 22.681,16.592 C22.879,16.529 23.027,16.413 23.125,16.243 C23.223,16.073 23.347,15.745 23.499,15.26 L25.956,7.206 C26.044,6.928 26.088,6.702 26.088,6.525 C26.088,6.418 26.06,6.323 26.003,6.241 C25.947,6.16 25.874,6.119 25.786,6.119 C25.622,6.119 25.427,6.231 25.2,6.454 C24.973,6.678 24.733,7.083 24.481,7.669 L23.574,7.669 C23.744,7.266 23.932,6.886 24.136,6.53 C24.341,6.174 24.655,5.829 25.077,5.495 C25.499,5.161 26.006,4.994 26.599,4.994 C27.658,4.994 28.187,5.529 28.187,6.601 C29.183,5.529 30.207,4.994 31.259,4.994 C31.927,4.994 32.46,5.154 32.857,5.476 C33.254,5.797 33.526,6.171 33.675,6.596 C33.823,7.021 33.897,7.423 33.897,7.801 L33.897,7.801 Z" id="Fill-28"></path>
                <path d="M45.518,10.628 C45.259,11.252 44.886,11.85 44.397,12.424 C43.909,12.997 43.249,13.284 42.417,13.284 C41.9,13.284 41.536,13.145 41.325,12.868 C41.113,12.591 41.008,12.27 41.008,11.904 C41.008,11.746 41.038,11.538 41.098,11.28 C41.157,11.022 41.235,10.735 41.329,10.42 L41.641,9.352 C40.967,10.448 40.272,11.378 39.557,12.14 C38.841,12.903 38.046,13.284 37.17,13.284 C36.722,13.284 36.379,13.155 36.14,12.897 C35.9,12.638 35.78,12.333 35.78,11.98 C35.78,11.646 35.869,11.195 36.045,10.628 L37,7.508 C37.125,7.13 37.189,6.859 37.189,6.695 C37.189,6.62 37.165,6.543 37.118,6.464 C37.071,6.385 36.99,6.345 36.877,6.345 C36.505,6.345 36.036,6.787 35.468,7.669 L34.599,7.669 C35.027,6.982 35.504,6.38 36.031,5.863 C36.557,5.347 37.214,5.088 38.002,5.088 C38.361,5.088 38.69,5.184 38.99,5.377 C39.289,5.569 39.438,5.926 39.438,6.449 C39.438,6.758 39.397,7.035 39.316,7.281 L38.541,9.796 C38.364,10.376 38.276,10.795 38.276,11.053 C38.276,11.192 38.318,11.324 38.403,11.45 C38.489,11.576 38.607,11.639 38.758,11.639 C39.054,11.639 39.42,11.414 39.854,10.964 C40.29,10.513 40.764,9.81 41.277,8.855 C41.791,7.901 42.294,6.705 42.785,5.268 L45.035,5.268 L43.268,11.034 C43.154,11.444 43.098,11.69 43.098,11.772 C43.098,11.847 43.127,11.924 43.188,12.003 C43.247,12.082 43.312,12.121 43.381,12.121 C43.614,12.121 43.838,11.964 44.052,11.649 C44.267,11.334 44.459,10.993 44.629,10.628 L45.518,10.628" id="Fill-29"></path>
                <path d="M52.411,1.184 C52.411,1.525 52.29,1.816 52.047,2.058 C51.805,2.301 51.52,2.423 51.191,2.423 C50.839,2.423 50.544,2.301 50.308,2.058 C50.071,1.816 49.953,1.525 49.953,1.184 C49.953,0.857 50.071,0.572 50.308,0.329 C50.544,0.086 50.839,-0.036 51.191,-0.036 C51.418,-0.036 51.625,0.02 51.811,0.13 C51.996,0.24 52.144,0.385 52.25,0.565 C52.357,0.744 52.411,0.951 52.411,1.184 L52.411,1.184 Z M51.712,10.741 C51.466,11.289 51.081,11.85 50.559,12.424 C50.035,12.997 49.38,13.284 48.592,13.284 C48.063,13.284 47.666,13.153 47.4,12.892 C47.136,12.631 47.004,12.32 47.004,11.961 C47.004,11.595 47.12,11.088 47.354,10.439 L48.573,7.102 C48.692,6.799 48.753,6.594 48.753,6.488 C48.753,6.418 48.725,6.355 48.668,6.298 C48.611,6.241 48.548,6.213 48.479,6.213 C48.265,6.213 48.029,6.38 47.774,6.714 C47.519,7.048 47.328,7.347 47.202,7.612 L46.37,7.612 C46.742,6.781 47.226,6.136 47.821,5.679 C48.417,5.222 49.011,4.994 49.604,4.994 C50.02,4.994 50.364,5.096 50.639,5.301 C50.913,5.506 51.05,5.779 51.05,6.119 C51.05,6.478 50.98,6.84 50.842,7.206 L49.367,11.167 C49.267,11.438 49.216,11.658 49.216,11.828 C49.216,11.904 49.246,11.978 49.306,12.051 C49.365,12.123 49.43,12.159 49.499,12.159 C49.688,12.159 49.884,12.058 50.086,11.857 C50.287,11.655 50.539,11.283 50.842,10.741 L51.712,10.741 L51.712,10.741 Z" id="Fill-30"></path>
                <path d="M60.826,6.601 C60.826,6.859 60.74,7.086 60.566,7.281 C60.394,7.477 60.158,7.574 59.862,7.574 C59.636,7.574 59.457,7.531 59.328,7.442 C59.199,7.354 59.098,7.231 59.025,7.073 C58.953,6.916 58.863,6.683 58.756,6.374 C58.693,6.16 58.594,5.993 58.459,5.873 C58.323,5.753 58.072,5.693 57.707,5.693 C57.379,5.693 57.085,5.779 56.823,5.948 C56.562,6.119 56.431,6.342 56.431,6.62 C56.431,6.809 56.484,6.988 56.592,7.158 C56.698,7.329 56.829,7.489 56.983,7.641 C57.139,7.792 57.379,8.006 57.707,8.283 C58.324,8.788 58.773,9.213 59.054,9.56 C59.334,9.906 59.475,10.335 59.475,10.845 C59.475,11.261 59.354,11.655 59.115,12.027 C58.876,12.399 58.479,12.701 57.925,12.934 C57.37,13.167 56.661,13.284 55.798,13.284 C54.556,13.284 53.683,13.055 53.179,12.599 C52.675,12.142 52.423,11.699 52.423,11.271 C52.423,10.987 52.521,10.738 52.716,10.524 C52.911,10.31 53.17,10.202 53.491,10.202 C54.134,10.202 54.502,10.615 54.597,11.441 C54.641,11.794 54.74,12.072 54.895,12.277 C55.049,12.482 55.369,12.585 55.854,12.585 C56.276,12.585 56.623,12.477 56.895,12.263 C57.165,12.049 57.301,11.775 57.301,11.441 C57.301,11.264 57.255,11.091 57.163,10.921 C57.072,10.751 56.882,10.543 56.592,10.297 C56.081,9.868 55.66,9.49 55.329,9.162 C54.999,8.835 54.748,8.52 54.578,8.217 C54.408,7.915 54.323,7.596 54.323,7.262 C54.323,6.967 54.421,6.645 54.616,6.298 C54.812,5.952 55.18,5.648 55.722,5.386 C56.264,5.125 56.998,4.994 57.925,4.994 C58.491,4.994 58.971,5.046 59.361,5.15 C59.752,5.254 60.053,5.386 60.264,5.547 C60.476,5.707 60.622,5.878 60.704,6.057 C60.785,6.237 60.826,6.418 60.826,6.601" id="Fill-31"></path>
                <path d="M75.615,3.093 C75.615,3.799 75.463,4.46 75.157,5.074 C74.852,5.689 74.4,6.292 73.806,6.885 C73.21,7.477 72.596,8.014 71.962,8.496 C71.328,8.978 70.082,9.884 68.224,11.214 L73.413,11.214 L72.656,13.606 L71.787,13.606 C71.837,13.505 71.862,13.407 71.862,13.313 C71.862,13.111 71.708,13.01 71.399,13.01 L66.21,13.01 L66.598,11.734 C67.063,11.337 67.44,11.009 67.727,10.751 C68.014,10.492 68.381,10.158 68.828,9.749 C69.275,9.339 69.715,8.923 70.146,8.501 C70.578,8.079 70.983,7.666 71.361,7.262 C71.947,6.626 72.437,5.925 72.827,5.159 C73.218,4.393 73.413,3.667 73.413,2.98 C73.413,2.64 73.349,2.326 73.219,2.04 C73.09,1.753 72.897,1.529 72.643,1.368 C72.388,1.208 72.07,1.127 71.692,1.127 C71.132,1.127 70.717,1.26 70.449,1.525 C70.182,1.789 70.048,2.082 70.048,2.404 C70.048,2.763 70.233,3.128 70.605,3.5 C70.655,3.551 70.705,3.603 70.752,3.656 C70.799,3.71 70.823,3.749 70.823,3.774 C70.823,3.837 70.731,3.923 70.549,4.029 L69.906,4.398 C69.779,4.474 69.65,4.511 69.519,4.511 C69.348,4.511 69.139,4.343 68.89,4.006 C68.641,3.669 68.517,3.289 68.517,2.867 C68.517,2.438 68.65,2.024 68.918,1.624 C69.186,1.223 69.583,0.901 70.109,0.654 C70.635,0.409 71.264,0.286 71.995,0.286 C73.187,0.286 74.087,0.551 74.698,1.08 C75.31,1.61 75.615,2.281 75.615,3.093" id="Fill-32"></path>
                <path d="M83.767,2.13 C83.767,1.833 83.685,1.584 83.521,1.382 C83.357,1.181 83.124,1.08 82.821,1.08 C82.412,1.08 82.053,1.254 81.744,1.6 C81.436,1.947 81.215,2.271 81.082,2.574 C80.786,3.197 80.424,4.151 79.995,5.433 C79.566,6.716 79.201,7.926 78.898,9.063 C78.596,10.201 78.445,10.949 78.445,11.308 C78.445,11.535 78.511,11.792 78.644,12.079 C78.775,12.365 79.06,12.509 79.494,12.509 C80.193,12.509 80.773,11.948 81.233,10.826 C81.403,10.41 81.64,9.741 81.942,8.818 C82.245,7.894 82.533,6.974 82.808,6.057 C83.082,5.14 83.31,4.315 83.493,3.58 C83.676,2.846 83.767,2.363 83.767,2.13 L83.767,2.13 Z M85.535,3.424 C85.535,4.105 85.421,4.998 85.194,6.105 C84.968,7.211 84.619,8.31 84.149,9.404 C83.681,10.497 83.052,11.42 82.264,12.173 C81.476,12.926 80.56,13.303 79.513,13.303 C78.403,13.303 77.668,12.953 77.306,12.254 C76.943,11.554 76.762,10.814 76.762,10.032 C76.762,9.2 76.938,8.091 77.292,6.705 C77.645,5.318 78.171,4.027 78.87,2.829 C79.116,2.413 79.414,2.018 79.764,1.643 C80.113,1.268 80.548,0.948 81.068,0.683 C81.588,0.418 82.179,0.286 82.841,0.286 C83.433,0.286 83.913,0.407 84.282,0.65 C84.65,0.893 84.928,1.197 85.114,1.562 C85.3,1.928 85.417,2.266 85.464,2.578 C85.511,2.89 85.535,3.173 85.535,3.424 L85.535,3.424 Z" id="Fill-33"></path>
                <path d="M94.611,0.286 L91.549,10.335 C91.359,10.971 91.265,11.39 91.265,11.592 C91.265,11.75 91.326,11.871 91.449,11.956 C91.572,12.041 91.734,12.096 91.937,12.121 C92.138,12.147 92.415,12.166 92.769,12.178 L92.522,13.01 L86.869,13.01 L87.144,12.178 L87.758,12.178 C88.054,12.178 88.274,12.152 88.42,12.098 C88.564,12.044 88.69,11.92 88.798,11.724 C88.905,11.529 89.037,11.182 89.195,10.684 L91.265,3.926 C91.391,3.497 91.454,3.286 91.454,3.292 C91.53,3.015 91.567,2.819 91.567,2.706 C91.567,2.435 91.432,2.262 91.161,2.186 C90.89,2.111 90.575,2.072 90.216,2.072 L89.497,2.072 L89.753,1.26 C90.653,1.178 91.331,1.099 91.785,1.024 C92.239,0.948 92.603,0.858 92.877,0.754 C93.151,0.65 93.452,0.494 93.779,0.286 L94.611,0.286" id="Fill-34"></path>
                <path d="M101.837,2.923 L97.186,8.056 L100.229,8.056 L101.837,2.923 L101.837,2.923 Z M104.909,7.262 L104.332,9.276 L102.102,9.276 L101.676,10.703 C101.55,11.189 101.486,11.479 101.486,11.573 C101.486,11.8 101.604,11.958 101.841,12.046 C102.077,12.134 102.407,12.178 102.829,12.178 L103.019,12.178 L102.782,13.01 L97.147,13.01 L97.384,12.178 L97.791,12.178 C98.162,12.178 98.432,12.153 98.599,12.102 C98.766,12.052 98.911,11.926 99.033,11.724 C99.156,11.523 99.29,11.17 99.436,10.666 L99.842,9.276 L95.947,9.276 L96.127,8.056 L103.112,0.286 L104.871,0.286 L102.489,8.056 L102.914,8.056 C103.286,8.056 103.536,8.017 103.666,7.938 C103.795,7.86 103.932,7.635 104.077,7.262 L104.909,7.262 L104.909,7.262 Z" id="Fill-35"></path>
            </g>
        </g>
    </g>
</svg>